Topmarks-Book-FF-MASTER.ufo
<glyph name="quotedbl" format="1">
  <advance width="847"/>
  <unicode hex="0022"/>
  <outline>
    <contour>
      <point x="490" y="931" type="line"/>
      <point x="489" y="1456" type="line"/>
      <point x="656" y="1456" type="line"/>
      <point x="598" y="931" type="line"/>
    </contour>
    <contour>
      <point x="191" y="931" type="line"/>
      <point x="190" y="1456" type="line"/>
      <point x="356" y="1456" type="line"/>
      <point x="300" y="931" type="line"/>
    </contour>
  </outline>
</glyph>
<glyph name="two" format="1">
  <advance width="1316"/>
  <unicode hex="0032"/>
  <outline>
    <contour>
      <point x="888.579" y="1156.52" type="curve" smooth="yes"/>
      <point x="888.579" y="1323.23"/>
      <point x="788.04" y="1436"/>
      <point x="621" y="1436" type="curve" smooth="yes"/>
      <point x="424" y="1436"/>
      <point x="290" y="1240"/>
      <point x="289" y="1241" type="curve" smooth="yes"/>
      <point x="191" y="1369" type="line"/>
      <point x="191" y="1369"/>
      <point x="360" y="1586"/>
      <point x="618" y="1586" type="curve" smooth="yes"/>
      <point x="885.301" y="1586"/>
      <point x="1059.23" y="1421.54"/>
      <point x="1059.23" y="1151.7" type="curve" smooth="yes"/>
      <point x="1059.23" y="947.963"/>
      <point x="977" y="815"/>
      <point x="811" y="605" type="curve" smooth="yes"/>
      <point x="448" y="144" type="line"/>
      <point x="1060" y="144" type="line"/>
      <point x="1060" y="0" type="line"/>
      <point x="237" y="0" type="line"/>
      <point x="237" y="135" type="line"/>
      <point x="701" y="725" type="line" smooth="yes"/>
      <point x="840" y="902"/>
      <point x="888.579" y="1021.99"/>
    </contour>
  </outline>
</glyph>
<glyph name="nine" format="1">
  <advance width="1316"/>
  <unicode hex="0039"/>
  <outline>
    <contour>
      <point x="818" y="1412" type="line"/>
      <point x="804" y="1421"/>
      <point x="749" y="1443"/>
      <point x="666" y="1443" type="curve" smooth="yes"/>
      <point x="451" y="1443"/>
      <point x="351" y="1262"/>
      <point x="351" y="1097" type="curve" smooth="yes"/>
      <point x="351" y="957"/>
      <point x="427" y="864"/>
      <point x="540" y="864" type="curve" smooth="yes"/>
      <point x="667" y="864"/>
      <point x="818" y="993"/>
      <point x="818" y="1279" type="curve" smooth="yes"/>
    </contour>
    <contour>
      <point x="998" y="1489" type="curve"/>
      <point x="998" y="0" type="line"/>
      <point x="824" y="0" type="line"/>
      <point x="824" y="874.245" type="line"/>
      <point x="735.408" y="774.407"/>
      <point x="628.606" y="715"/>
      <point x="524" y="715" type="curve" smooth="yes"/>
      <point x="330" y="715"/>
      <point x="177" y="867"/>
      <point x="177" y="1089" type="curve" smooth="yes"/>
      <point x="177" y="1326"/>
      <point x="335" y="1586"/>
      <point x="647" y="1586" type="curve" smooth="yes"/>
      <point x="800" y="1586"/>
      <point x="921" y="1547"/>
    </contour>
  </outline>
</glyph>
<glyph name="question" format="1">
  <advance width="990"/>
  <unicode hex="003F"/>
  <outline>
    <contour>
      <point x="382" y="0" type="curve" smooth="yes"/>
      <point x="313" y="0"/>
      <point x="275" y="49"/>
      <point x="275" y="106" type="curve" smooth="yes"/>
      <point x="275" y="172"/>
      <point x="329" y="211"/>
      <point x="383" y="211" type="curve" smooth="yes"/>
      <point x="451" y="211"/>
      <point x="488" y="162"/>
      <point x="488" y="105" type="curve" smooth="yes"/>
      <point x="488" y="39"/>
      <point x="436" y="0"/>
    </contour>
    <contour>
      <point x="680" y="1228" type="curve" smooth="yes"/>
      <point x="680" y="1379.45"/>
      <point x="561.719" y="1435.86"/>
      <point x="424.052" y="1435.86" type="curve" smooth="yes"/>
      <point x="323.709" y="1435.86"/>
      <point x="209.787" y="1404.49"/>
      <point x="140" y="1365" type="curve"/>
      <point x="140" y="1516" type="line"/>
      <point x="220" y="1555"/>
      <point x="323" y="1586"/>
      <point x="429" y="1586" type="curve" smooth="yes"/>
      <point x="706" y="1586"/>
      <point x="849" y="1441"/>
      <point x="849" y="1236" type="curve" smooth="yes"/>
      <point x="849" y="863"/>
      <point x="438" y="711"/>
      <point x="438" y="401" type="curve"/>
      <point x="313" y="401" type="line"/>
      <point x="313" y="763"/>
      <point x="680" y="892"/>
    </contour>
  </outline>
</glyph>
<glyph name="F" format="1">
  <advance width="1104"/>
  <unicode hex="0046"/>
  <outline>
    <contour>
      <point x="198" y="0" type="line"/>
      <point x="198" y="1560" type="line"/>
      <point x="1024" y="1560" type="line"/>
      <point x="1024" y="1422" type="line"/>
      <point x="372" y="1422" type="line"/>
      <point x="372" y="925" type="line"/>
      <point x="990" y="925" type="line"/>
      <point x="990" y="777" type="line"/>
      <point x="372" y="777" type="line"/>
      <point x="372" y="0" type="line"/>
    </contour>
  </outline>
</glyph>
<glyph name="I" format="1">
  <advance width="902.0"/>
  <unicode hex="0049"/>
  <outline>
    <contour>
      <point x="746.0" y="0" type="line"/>
      <point x="156.0" y="0" type="line"/>
      <point x="156.0" y="124" type="line"/>
      <point x="364.0" y="124" type="line"/>
      <point x="364.0" y="1436" type="line"/>
      <point x="156.0" y="1436" type="line"/>
      <point x="156.0" y="1560" type="line"/>
      <point x="746.0" y="1560" type="line"/>
      <point x="746.0" y="1436" type="line"/>
      <point x="538.0" y="1436" type="line"/>
      <point x="538.0" y="124" type="line"/>
      <point x="746.0" y="124" type="line"/>
    </contour>
  </outline>
</glyph>
<glyph name="J" format="1">
  <advance width="1201.25"/>
  <unicode hex="004A"/>
  <outline>
    <contour>
      <point x="121.25" y="130" type="curve"/>
      <point x="208.25" y="248" type="line"/>
      <point x="276.25" y="166"/>
      <point x="370.25" y="126"/>
      <point x="455.25" y="126" type="curve" smooth="yes"/>
      <point x="616.25" y="126"/>
      <point x="693" y="209"/>
      <point x="693.25" y="467" type="curve" smooth="yes"/>
      <point x="693.25" y="1436" type="line"/>
      <point x="288.25" y="1436" type="line"/>
      <point x="288.25" y="1560" type="line"/>
      <point x="1131.25" y="1560" type="line"/>
      <point x="1131.25" y="1436" type="line"/>
      <point x="860.25" y="1436" type="line"/>
      <point x="860.25" y="434" type="line" smooth="yes"/>
      <point x="860" y="123"/>
      <point x="716.25" y="-24"/>
      <point x="465.25" y="-24" type="curve" smooth="yes"/>
      <point x="342.25" y="-24"/>
      <point x="206.25" y="24"/>
    </contour>
  </outline>
</glyph>
<glyph name="Q" format="1">
  <advance width="1646"/>
  <unicode hex="0051"/>
  <outline>
    <component base="O" xOffset="4"/>
    <contour>
      <point x="1231" y="-237" type="line"/>
      <point x="1359" y="-168" type="line"/>
      <point x="1009" y="477" type="line"/>
      <point x="871" y="402" type="line"/>
    </contour>
  </outline>
</glyph>
<glyph name="R" format="1">
  <advance width="1369"/>
  <unicode hex="0052"/>
  <outline>
    <contour>
      <point x="372" y="903" type="line"/>
      <point x="681" y="903" type="line" smooth="yes"/>
      <point x="870" y="903"/>
      <point x="1002" y="963"/>
      <point x="1002" y="1162" type="curve" smooth="yes"/>
      <point x="1002" y="1373"/>
      <point x="887" y="1422"/>
      <point x="692" y="1422" type="curve" smooth="yes"/>
      <point x="372" y="1422" type="line"/>
    </contour>
    <contour>
      <point x="198" y="0" type="line"/>
      <point x="198" y="1560" type="line"/>
      <point x="603" y="1560" type="line" smooth="yes"/>
      <point x="925" y="1560"/>
      <point x="1173" y="1508"/>
      <point x="1173" y="1176" type="curve" smooth="yes"/>
      <point x="1173" y="981.61"/>
      <point x="1083.17" y="833.251"/>
      <point x="836.854" y="779.907" type="curve"/>
      <point x="1242" y="0" type="line"/>
      <point x="1050" y="0" type="line"/>
      <point x="672" y="756" type="line"/>
      <point x="372" y="756" type="line"/>
      <point x="372" y="0" type="line"/>
    </contour>
  </outline>
</glyph>
<glyph name="V" format="1">
  <advance width="1388"/>
  <unicode hex="0056"/>
  <outline>
    <contour>
      <point x="609.429" y="0" type="line"/>
      <point x="55.4286" y="1560" type="line"/>
      <point x="243.429" y="1560" type="line"/>
      <point x="655.429" y="335" type="line"/>
      <point x="701.429" y="185" type="line"/>
      <point x="748.874" y="332" type="line"/>
      <point x="1149.43" y="1560" type="line"/>
      <point x="1333.43" y="1560" type="line"/>
      <point x="795.429" y="0" type="line"/>
    </contour>
  </outline>
</glyph>
<glyph name="Z" format="1">
  <advance width="1143"/>
  <unicode hex="005A"/>
  <outline>
    <contour>
      <point x="92.381" y="0" type="line"/>
      <point x="92.381" y="92" type="line"/>
      <point x="852.381" y="1422" type="line"/>
      <point x="124.381" y="1422" type="line"/>
      <point x="124.381" y="1560" type="line"/>
      <point x="1084.38" y="1560" type="line"/>
      <point x="1084.38" y="1472" type="line"/>
      <point x="320.381" y="138" type="line"/>
      <point x="1076.38" y="138" type="line"/>
      <point x="1076.38" y="0" type="line"/>
    </contour>
  </outline>
</glyph>
<glyph name="backslash" format="1">
  <advance width="954"/>
  <unicode hex="005C"/>
  <outline>
    <contour>
      <point x="712" y="0" type="line"/>
      <point x="83" y="1456" type="line"/>
      <point x="250" y="1456" type="line"/>
      <point x="875" y="0" type="line"/>
    </contour>
  </outline>
</glyph>
<glyph name="grave" format="1">
  <advance width="629"/>
  <unicode hex="0060"/>
  <outline>
    <contour>
      <point x="416" y="1160" type="line"/>
      <point x="84" y="1480" type="line"/>
      <point x="298" y="1480" type="line"/>
      <point x="545" y="1160" type="line"/>
    </contour>
  </outline>
</glyph>
<glyph name="a" format="1">
  <advance width="1211"/>
  <unicode hex="0061"/>
  <outline>
    <contour>
      <point x="546" y="110" type="curve" smooth="yes"/>
      <point x="731" y="110"/>
      <point x="835" y="260"/>
      <point x="835" y="453" type="curve" smooth="yes"/>
      <point x="835" y="894" type="line"/>
      <point x="795" y="907"/>
      <point x="758" y="920"/>
      <point x="686" y="920" type="curve" smooth="yes"/>
      <point x="464" y="920"/>
      <point x="297" y="737"/>
      <point x="297" y="439" type="curve" smooth="yes"/>
      <point x="297" y="239"/>
      <point x="393" y="110"/>
    </contour>
    <contour>
      <point x="522" y="-22" type="curve" smooth="yes"/>
      <point x="287" y="-22"/>
      <point x="121" y="162"/>
      <point x="121" y="438" type="curve" smooth="yes"/>
      <point x="121" y="804"/>
      <point x="363" y="1052"/>
      <point x="688" y="1052" type="curve" smooth="yes"/>
      <point x="815" y="1052"/>
      <point x="927" y="1017"/>
      <point x="1005" y="976" type="curve"/>
      <point x="1005" y="348" type="line" smooth="yes"/>
      <point x="1005" y="170"/>
      <point x="1023" y="121"/>
      <point x="1150" y="121" type="curve"/>
      <point x="1122" y="-14" type="line"/>
      <point x="959" y="-14"/>
      <point x="885" y="49"/>
      <point x="858" y="161" type="curve"/>
      <point x="792" y="48"/>
      <point x="671" y="-22"/>
    </contour>
  </outline>
</glyph>
<glyph name="b" format="1">
  <advance width="1195"/>
  <unicode hex="0062"/>
  <outline>
    <contour>
      <point x="575" y="114" type="curve" smooth="yes"/>
      <point x="799" y="114"/>
      <point x="915" y="318"/>
      <point x="915" y="550" type="curve" smooth="yes"/>
      <point x="915" y="793"/>
      <point x="807" y="920"/>
      <point x="665" y="920" type="curve" smooth="yes"/>
      <point x="512" y="920"/>
      <point x="350" y="791"/>
      <point x="350" y="601" type="curve" smooth="yes"/>
      <point x="350" y="151" type="line"/>
      <point x="350" y="151"/>
      <point x="427" y="114"/>
    </contour>
    <contour>
      <point x="581" y="-22" type="curve" smooth="yes"/>
      <point x="348" y="-22"/>
      <point x="180" y="71"/>
      <point x="180" y="71" type="curve"/>
      <point x="180" y="1560" type="line"/>
      <point x="350" y="1560" type="line"/>
      <point x="350" y="868" type="line"/>
      <point x="442" y="1002"/>
      <point x="553" y="1052"/>
      <point x="688" y="1052" type="curve" smooth="yes"/>
      <point x="911" y="1052"/>
      <point x="1089" y="865"/>
      <point x="1089" y="545" type="curve" smooth="yes"/>
      <point x="1089" y="215"/>
      <point x="885" y="-22"/>
    </contour>
  </outline>
</glyph>
<glyph name="c" format="1">
  <advance width="1016"/>
  <unicode hex="0063"/>
  <outline>
    <contour>
      <point x="949" y="78" type="line"/>
      <point x="846" y="10"/>
      <point x="731" y="-22"/>
      <point x="620" y="-22" type="curve" smooth="yes"/>
      <point x="352" y="-22"/>
      <point x="106" y="167"/>
      <point x="106" y="511" type="curve" smooth="yes"/>
      <point x="106" y="853"/>
      <point x="346" y="1052"/>
      <point x="618" y="1052" type="curve" smooth="yes"/>
      <point x="727" y="1052"/>
      <point x="842" y="1020"/>
      <point x="948" y="952" type="curve"/>
      <point x="899" y="826" type="line"/>
      <point x="813" y="884"/>
      <point x="719" y="920"/>
      <point x="631" y="920" type="curve" smooth="yes"/>
      <point x="440" y="920"/>
      <point x="280" y="778"/>
      <point x="280" y="510" type="curve" smooth="yes"/>
      <point x="280" y="241"/>
      <point x="442" y="110"/>
      <point x="630" y="110" type="curve" smooth="yes"/>
      <point x="720" y="110"/>
      <point x="815" y="144"/>
      <point x="899" y="200" type="curve"/>
    </contour>
  </outline>
</glyph>
<glyph name="f" format="1">
  <advance width="750"/>
  <unicode hex="0066"/>
  <outline>
    <contour>
      <point x="407" y="0" type="line"/>
      <point x="237" y="0" type="line"/>
      <point x="237" y="920" type="line"/>
      <point x="35" y="920" type="line"/>
      <point x="35" y="1026" type="line"/>
      <point x="237" y="1026" type="line"/>
      <point x="237" y="1147" type="line" smooth="yes"/>
      <point x="237" y="1380"/>
      <point x="334" y="1560"/>
      <point x="714" y="1560" type="curve"/>
      <point x="731" y="1424" type="line"/>
      <point x="492" y="1424"/>
      <point x="407" y="1336"/>
      <point x="407" y="1159" type="curve" smooth="yes"/>
      <point x="407" y="1026" type="line"/>
      <point x="666" y="1026" type="line"/>
      <point x="666" y="920" type="line"/>
      <point x="407" y="920" type="line"/>
    </contour>
  </outline>
</glyph>
<glyph name="k" format="1">
  <advance width="1073"/>
  <unicode hex="006B"/>
  <outline>
    <contour>
      <point x="350" y="0" type="line"/>
      <point x="180" y="0" type="line"/>
      <point x="180" y="1560" type="line"/>
      <point x="350" y="1560" type="line"/>
      <point x="350" y="556.47" type="line"/>
      <point x="791" y="1026" type="line"/>
      <point x="998" y="1026" type="line"/>
      <point x="506" y="513" type="line"/>
      <point x="1060" y="0" type="line"/>
      <point x="843" y="0" type="line"/>
      <point x="350" y="459.845" type="line"/>
    </contour>
  </outline>
</glyph>
<glyph name="l" format="1">
  <advance width="661"/>
  <unicode hex="006C"/>
  <outline>
    <contour>
      <point x="604.0" y="-10.0" type="line"/>
      <point x="238.0" y="-40.0"/>
      <point x="214.0" y="128.0"/>
      <point x="214.0" y="326.0" type="curve" smooth="yes"/>
      <point x="214.0" y="1560.0" type="line"/>
      <point x="384.0" y="1560.0" type="line"/>
      <point x="384.0" y="320.0" type="line" smooth="yes"/>
      <point x="384.0" y="185.0"/>
      <point x="394.0" y="112.0"/>
      <point x="618.0" y="124.0" type="curve"/>
    </contour>
  </outline>
</glyph>
<glyph name="m" format="1">
  <advance width="1856.0"/>
  <unicode hex="006D"/>
  <outline>
    <contour>
      <point x="351.0" y="0.0" type="line"/>
      <point x="181.0" y="0.0" type="line" smooth="yes"/>
      <point x="181.0" y="634.0" type="line" smooth="yes"/>
      <point x="181.0" y="833.0"/>
      <point x="138.0" y="1026.0"/>
      <point x="138.0" y="1026.0" type="curve"/>
      <point x="309.0" y="1026.0" type="line"/>
      <point x="309.0" y="1026.0"/>
      <point x="351.0" y="906.0"/>
      <point x="351.0" y="667.0" type="curve" smooth="yes"/>
    </contour>
    <contour>
      <point x="1803.0" y="121" type="line"/>
      <point x="1777.0" y="-14" type="line"/>
      <point x="1761.0" y="-14" type="line" smooth="yes"/>
      <point x="1547.0" y="-14"/>
      <point x="1483.0" y="87"/>
      <point x="1483.0" y="313" type="curve" smooth="yes"/>
      <point x="1483.0" y="607" type="line" smooth="yes"/>
      <point x="1483.0" y="853"/>
      <point x="1430.0" y="920"/>
      <point x="1291.0" y="920" type="curve" smooth="yes"/>
      <point x="1148.0" y="920"/>
      <point x="1011.0" y="792"/>
      <point x="1011.0" y="542" type="curve" smooth="yes"/>
      <point x="1011.0" y="0" type="line"/>
      <point x="840.0" y="2" type="line"/>
      <point x="840.0" y="607" type="line" smooth="yes"/>
      <point x="840.0" y="840"/>
      <point x="782.0" y="920"/>
      <point x="657.0" y="920" type="curve" smooth="yes"/>
      <point x="528.0" y="920"/>
      <point x="351.0" y="796"/>
      <point x="351.0" y="515" type="curve"/>
      <point x="309.0" y="829" type="line"/>
      <point x="379.0" y="963"/>
      <point x="505.0" y="1052"/>
      <point x="684.0" y="1052" type="curve" smooth="yes"/>
      <point x="806.06" y="1052"/>
      <point x="912.311" y="1002.71"/>
      <point x="967.56" y="869.573" type="curve"/>
      <point x="1044.53" y="988.034"/>
      <point x="1155.33" y="1052"/>
      <point x="1320.0" y="1052" type="curve" smooth="yes"/>
      <point x="1501.0" y="1052"/>
      <point x="1653.0" y="946"/>
      <point x="1653.0" y="625" type="curve" smooth="yes"/>
      <point x="1653.0" y="298" type="line" smooth="yes"/>
      <point x="1653.0" y="168"/>
      <point x="1675.0" y="121"/>
      <point x="1776.0" y="121" type="curve" smooth="yes"/>
    </contour>
  </outline>
</glyph>
<glyph name="p" format="1">
  <advance width="1198.0"/>
  <unicode hex="0070"/>
  <outline>
    <contour>
      <point x="351.0" y="-574.0" type="line"/>
      <point x="181.0" y="-574.0" type="line" smooth="yes"/>
      <point x="181.0" y="634.0" type="line" smooth="yes"/>
      <point x="181.0" y="833.0"/>
      <point x="138.0" y="1026.0"/>
      <point x="138.0" y="1026.0" type="curve"/>
      <point x="309.0" y="1026.0" type="line"/>
      <point x="309.0" y="1026.0"/>
      <point x="351.0" y="906.0"/>
      <point x="351.0" y="667.0" type="curve" smooth="yes"/>
    </contour>
    <contour>
      <point x="269.0" y="680.0" type="line"/>
      <point x="302.0" y="881"/>
      <point x="394.0" y="1052.0"/>
      <point x="674.0" y="1052.0" type="curve" smooth="yes"/>
      <point x="931.0" y="1052.0"/>
      <point x="1088.0" y="853.0"/>
      <point x="1088.0" y="543.0" type="curve" smooth="yes"/>
      <point x="1088.0" y="186.0"/>
      <point x="886.0" y="-22.0"/>
      <point x="596.0" y="-22.0" type="curve" smooth="yes"/>
      <point x="458.0" y="-22.0"/>
      <point x="338.0" y="24.0"/>
      <point x="270.0" y="55.0" type="curve"/>
      <point x="270.0" y="197.0" type="line"/>
      <point x="346.0" y="163.0"/>
      <point x="448.0" y="110.0"/>
      <point x="570.0" y="110.0" type="curve" smooth="yes"/>
      <point x="763.0" y="110.0"/>
      <point x="914.0" y="239.0"/>
      <point x="914.0" y="541.0" type="curve" smooth="yes"/>
      <point x="914.0" y="785.0"/>
      <point x="817.0" y="920"/>
      <point x="639.0" y="920.0" type="curve" smooth="yes"/>
      <point x="436.0" y="920"/>
      <point x="351.0" y="721"/>
      <point x="351.0" y="500" type="curve"/>
    </contour>
  </outline>
</glyph>
<glyph name="q" format="1">
  <advance width="1189"/>
  <unicode hex="0071"/>
  <outline>
    <contour>
      <point x="541" y="110" type="curve" smooth="yes"/>
      <point x="745" y="110"/>
      <point x="845" y="273"/>
      <point x="845" y="476" type="curve" smooth="yes"/>
      <point x="845" y="881" type="line"/>
      <point x="805" y="893"/>
      <point x="736" y="920"/>
      <point x="663" y="920" type="curve" smooth="yes"/>
      <point x="431" y="920"/>
      <point x="286" y="734"/>
      <point x="286" y="448" type="curve" smooth="yes"/>
      <point x="286" y="248"/>
      <point x="385" y="110"/>
    </contour>
    <contour>
      <point x="1005" y="-544" type="line" smooth="yes"/>
      <point x="989.441" y="-550.551"/>
      <point x="970.903" y="-554.569"/>
      <point x="952.17" y="-554.569" type="curve" smooth="yes"/>
      <point x="902.273" y="-554.569"/>
      <point x="845" y="-526.064"/>
      <point x="845" y="-441" type="curve" smooth="yes"/>
      <point x="845" y="153" type="line"/>
      <point x="769" y="28"/>
      <point x="656" y="-22"/>
      <point x="520" y="-22" type="curve" smooth="yes"/>
      <point x="280" y="-22"/>
      <point x="112" y="162"/>
      <point x="112" y="438" type="curve" smooth="yes"/>
      <point x="112" y="820"/>
      <point x="334" y="1052"/>
      <point x="666" y="1052" type="curve" smooth="yes"/>
      <point x="795" y="1052"/>
      <point x="935" y="1006"/>
      <point x="1015" y="954" type="curve"/>
      <point x="1015" y="-394" type="line"/>
      <point x="1276" y="-285" type="line"/>
      <point x="1322" y="-405" type="line"/>
    </contour>
  </outline>
</glyph>
<glyph name="r" format="1">
  <advance width="778"/>
  <unicode hex="0072"/>
  <outline>
    <contour>
      <point x="353" y="0" type="line"/>
      <point x="183" y="0" type="line" smooth="yes"/>
      <point x="183" y="634" type="line" smooth="yes"/>
      <point x="183" y="833"/>
      <point x="140" y="1026"/>
      <point x="140" y="1026" type="curve"/>
      <point x="311" y="1026" type="line"/>
      <point x="311" y="1026"/>
      <point x="353" y="906"/>
      <point x="353" y="667" type="curve" smooth="yes"/>
    </contour>
    <contour>
      <point x="313" y="829" type="line"/>
      <point x="347.914" y="936.178"/>
      <point x="438.207" y="1047.31"/>
      <point x="611.715" y="1047.31" type="curve" smooth="yes"/>
      <point x="651.897" y="1047.31"/>
      <point x="696.544" y="1041.35"/>
      <point x="746" y="1028" type="curve"/>
      <point x="732" y="883" type="line"/>
      <point x="688.288" y="897.62"/>
      <point x="649.135" y="904.345"/>
      <point x="614.146" y="904.345" type="curve" smooth="yes"/>
      <point x="412.202" y="904.345"/>
      <point x="353" y="680"/>
      <point x="353" y="457" type="curve"/>
    </contour>
  </outline>
</glyph>
<glyph name="plusminus" format="1">
  <advance width="1425"/>
  <unicode hex="00B1"/>
  <outline>
    <contour>
      <point x="196" y="0" type="line"/>
      <point x="196" y="138" type="line"/>
      <point x="1228" y="138" type="line"/>
      <point x="1228" y="0" type="line"/>
    </contour>
    <contour>
      <point x="635" y="308" type="line"/>
      <point x="635" y="680" type="line"/>
      <point x="196" y="680" type="line"/>
      <point x="196" y="818" type="line"/>
      <point x="633" y="818" type="line"/>
      <point x="633" y="1192" type="line"/>
      <point x="782" y="1192" type="line"/>
      <point x="782" y="818" type="line"/>
      <point x="1224" y="818" type="line"/>
      <point x="1224" y="680" type="line"/>
      <point x="785" y="680" type="line"/>
      <point x="785" y="308" type="line"/>
    </contour>
  </outline>
</glyph>
<glyph name="paragraph" format="1">
  <advance width="1150"/>
  <unicode hex="00B6"/>
  <outline>
    <contour>
      <point x="468" y="0" type="line"/>
      <point x="468" y="830" type="line"/>
      <point x="253" y="830"/>
      <point x="137" y="946"/>
      <point x="137" y="1134" type="curve" smooth="yes"/>
      <point x="137" y="1398"/>
      <point x="389" y="1455"/>
      <point x="642" y="1455" type="curve" smooth="yes"/>
      <point x="1023" y="1455" type="line"/>
      <point x="1023" y="1331" type="line"/>
      <point x="936" y="1331" type="line"/>
      <point x="936" y="0" type="line"/>
      <point x="807" y="0" type="line"/>
      <point x="807" y="1331" type="line"/>
      <point x="606" y="1331" type="line"/>
      <point x="606" y="0" type="line"/>
    </contour>
  </outline>
</glyph>
<glyph name="AE" format="1">
  <advance width="1981"/>
  <unicode hex="00C6"/>
  <outline>
    <contour>
      <point x="506" y="546" type="line"/>
      <point x="1032" y="546" type="line"/>
      <point x="974" y="1308" type="line"/>
      <point x="926" y="1308" type="line"/>
    </contour>
    <contour>
      <point x="15" y="0" type="line"/>
      <point x="823" y="1456" type="line"/>
      <point x="1832" y="1456" type="line"/>
      <point x="1832" y="1308" type="line"/>
      <point x="1133" y="1308" type="line"/>
      <point x="1169" y="820" type="line"/>
      <point x="1791" y="820" type="line"/>
      <point x="1791" y="672" type="line"/>
      <point x="1187" y="672" type="line"/>
      <point x="1227" y="148" type="line"/>
      <point x="1855" y="148" type="line"/>
      <point x="1855" y="0" type="line"/>
      <point x="1080" y="0" type="line"/>
      <point x="1050" y="398" type="line"/>
      <point x="430" y="398" type="line"/>
      <point x="211" y="0" type="line"/>
    </contour>
  </outline>
</glyph>
<glyph name="eth" format="1">
  <advance width="1173"/>
  <unicode hex="00F0"/>
  <outline>
    <contour>
      <point x="582" y="118" type="curve" smooth="yes"/>
      <point x="798" y="118"/>
      <point x="887" y="310"/>
      <point x="887" y="536" type="curve"/>
      <point x="845" y="664"/>
      <point x="745" y="775"/>
      <point x="582" y="775" type="curve" smooth="yes"/>
      <point x="391" y="775"/>
      <point x="274" y="638"/>
      <point x="274" y="441" type="curve" smooth="yes"/>
      <point x="274" y="239"/>
      <point x="408" y="118"/>
    </contour>
    <contour>
      <point x="589" y="-22" type="curve" smooth="yes"/>
      <point x="288" y="-22"/>
      <point x="98" y="186"/>
      <point x="98" y="446" type="curve" smooth="yes"/>
      <point x="98" y="738"/>
      <point x="299" y="915"/>
      <point x="556" y="915" type="curve" smooth="yes"/>
      <point x="729" y="915"/>
      <point x="833" y="838"/>
      <point x="902" y="723" type="curve"/>
      <point x="902" y="733" type="line" smooth="yes"/>
      <point x="902.479" y="927.848"/>
      <point x="818.156" y="1075.25"/>
      <point x="714.537" y="1180.7" type="curve"/>
      <point x="529" y="1061" type="line"/>
      <point x="467" y="1156" type="line"/>
      <point x="625.969" y="1258.34" type="line"/>
      <point x="537.06" y="1325.68"/>
      <point x="447.31" y="1366.25"/>
      <point x="392" y="1383" type="curve"/>
      <point x="467" y="1490" type="line"/>
      <point x="551.395" y="1462.37"/>
      <point x="653.64" y="1414.65"/>
      <point x="750.197" y="1338.32" type="curve"/>
      <point x="933" y="1456" type="line"/>
      <point x="994" y="1361" type="line"/>
      <point x="836.876" y="1259.63" type="line"/>
      <point x="961.395" y="1129.79"/>
      <point x="1061.64" y="941.245"/>
      <point x="1077" y="672" type="curve" smooth="yes"/>
      <point x="1078.35" y="648.238"/>
      <point x="1079.02" y="624.874"/>
      <point x="1079.02" y="601.946" type="curve" smooth="yes"/>
      <point x="1079.02" y="234.082"/>
      <point x="906.227" y="-22"/>
    </contour>
  </outline>
</glyph>
<glyph name="dotlessi" format="1">
  <advance width="633"/>
  <unicode hex="0131"/>
  <outline>
    <contour>
      <point x="659" y="26" type="line"/>
      <point x="589.223" y="-2.57229"/>
      <point x="519.266" y="-18.0283"/>
      <point x="455.548" y="-18.0283" type="curve" smooth="yes"/>
      <point x="307.411" y="-18.0283"/>
      <point x="193" y="65.5138"/>
      <point x="193" y="262" type="curve" smooth="yes"/>
      <point x="193" y="1026" type="line"/>
      <point x="357" y="1026" type="line"/>
      <point x="357" y="267" type="line" smooth="yes"/>
      <point x="357" y="148.638"/>
      <point x="410.783" y="111.139"/>
      <point x="483.751" y="111.139" type="curve" smooth="yes"/>
      <point x="529.764" y="111.139"/>
      <point x="583.405" y="126.05"/>
      <point x="636" y="145" type="curve"/>
    </contour>
  </outline>
</glyph>
<glyph name="quotedblright" format="1">
  <advance width="899"/>
  <unicode hex="201D"/>
  <outline>
    <contour>
      <point x="472" y="1016" type="line"/>
      <point x="577" y="1560" type="line"/>
      <point x="759" y="1560" type="line"/>
      <point x="605" y="1016" type="line"/>
    </contour>
    <contour>
      <point x="146" y="1016" type="line"/>
      <point x="250" y="1560" type="line"/>
      <point x="432" y="1560" type="line"/>
      <point x="279" y="1016" type="line"/>
    </contour>
  </outline>
</glyph>
<glyph name="fraction" format="1">
  <advance width="982"/>
  <unicode hex="2044"/>
  <outline>
    <contour>
      <point x="0" y="0" type="line"/>
      <point x="833" y="1456" type="line"/>
      <point x="982" y="1456" type="line"/>
      <point x="151" y="0" type="line"/>
    </contour>
  </outline>
</glyph>
